<svg
  width="24"
  height="24"
  viewBox="0 0 24 24"
  fill="none"
  xmlns="http://www.w3.org/2000/svg"
>
  <path
    d="M14.7 6.29998C14.5168 6.48691 14.4141 6.73823 14.4141 6.99998C14.4141 7.26173 14.5168 7.51305 14.7 7.69998L16.3 9.29998C16.4869 9.48321 16.7382 9.58584 17 9.58584C17.2617 9.58584 17.5131 9.48321 17.7 9.29998L21.47 5.52998C21.9728 6.64117 22.1251 7.87921 21.9065 9.07913C21.6878 10.279 21.1087 11.3838 20.2463 12.2463C19.3838 13.1087 18.279 13.6878 17.0791 13.9064C15.8792 14.1251 14.6412 13.9728 13.53 13.47L6.61999 20.38C6.22217 20.7778 5.6826 21.0013 5.11999 21.0013C4.55738 21.0013 4.01782 20.7778 3.61999 20.38C3.22217 19.9822 2.99867 19.4426 2.99867 18.88C2.99867 18.3174 3.22217 17.7778 3.61999 17.38L10.53 10.47C10.0272 9.35879 9.87491 8.12075 10.0935 6.92083C10.3122 5.72092 10.8913 4.61614 11.7537 3.7537C12.6161 2.89127 13.7209 2.31215 14.9208 2.09352C16.1208 1.8749 17.3588 2.02714 18.47 2.52998L14.71 6.28998L14.7 6.29998Z"
    stroke="white"
    stroke-width="2"
    stroke-linecap="round"
    stroke-linejoin="round"
  />
</svg>